# AST/ASF file generated using VICON BodyLanguage
# -----------------------------------------------
:version 1.10
:name VICON
:units
  mass 1.0
  length 0.45
  angle deg
:documentation
   .ast/.asf automatically generated from VICON data using
   VICON BodyBuilder and BodyLanguage model FoxedUp or BRILLIANT.MOD
:root
   order TX TY TZ RX RY RZ
   axis XYZ
   position 0 0 0  
   orientation 0 0 0 
:bonedata
  begin
     id 1 
     name lhipjoint
     direction 0.577973 -0.728611 0.367523 
     length 2.48544 
     axis 0 0 0  XYZ
  end
  begin
     id 2 
     name lfemur
     direction 0.34202 -0.939693 0  
     length 7.1921  
     axis 0 0 20  XYZ
    dof rx ry rz
    limits (-160.0 20.0)
           (-70.0 70.0)
           (-60.0 70.0)
  end
  begin
     id 3 
     name ltibia
     direction 0.34202 -0.939693 0   
     length 7.71059   
     axis 0 0 20   XYZ
    dof rx
    limits (-10.0 170.0)
  end
  begin
     id 4 
     name lfoot
     direction 0.089538 -0.246004 0.965124   
     length 2.19909   
     axis -90 7.62852e-016 20   XYZ
    dof rx rz
    limits (-45.0 90.0)
           (-70.0 20.0)
  end
  begin
     id 5 
     name ltoes
     direction 1.53544e-011 -4.21829e-011 1   
     length 1.10116   
     axis -90 7.62852e-016 20   XYZ
    dof rx
    limits (-90.0 20.0)
  end
  begin
     id 6 
     name rhipjoint
     direction -0.554414 -0.743062 0.374812   
     length 2.4371  
     axis 0 0 0  XYZ 
  end
  begin
     id 7 
     name rfemur
     direction -0.34202 -0.939693 0   
     length 7.47254   
     axis 0 0 -20   XYZ
    dof rx ry rz
    limits (-160.0 20.0)
           (-70.0 70.0)
           (-70.0 60.0)
  end
  begin
     id 8 
     name rtibia
     direction -0.34202 -0.939693 0   
     length 7.65855   
     axis 0 0 -20   XYZ
    dof rx
    limits (-10.0 170.0)
 end
 begin
     id 9 
     name rfoot
     direction -0.133779 -0.367555 0.92033   
     length 2.43006  
     axis -90 -7.62852e-016 -20   XYZ
    dof rx rz
    limits (-45.0 90.0)
           (-20.0 70.0)
  end
  begin
     id 10 
     name rtoes
     direction -1.53563e-011 -4.21889e-011 1   
     length 1.19625   
     axis -90 -7.62852e-016 -20   XYZ
    dof rx
    limits (-90.0 20.0)
  end
  begin
     id 11 
     name lowerback
     direction 0.0249066 0.998043 -0.0573585   
     length 2.08485   
     axis 0 0 0   XYZ
    dof rx ry rz
    limits (-20.0 45.0)
           (-30.0 30.0)
           (-30.0 30.0)
  end
  begin
     id 12 
     name upperback
     direction 0.0237884 0.999673 0.00943178   
     length 2.08515   
     axis 0 0 0   XYZ
    dof rx ry rz
    limits (-20.0 45.0)
           (-30.0 30.0)
           (-30.0 30.0)
  end
  begin
     id 13 
     name thorax
     direction 0.0106671 0.999301 0.0358174   
     length 2.09037   
     axis 0 0 0   XYZ
    dof rx ry rz
    limits (-20.0 45.0)
           (-30.0 30.0)
           (-30.0 30.0)
  end
  begin
     id 14 
     name lowerneck
     direction -0.0580016 0.987052 0.149546   
     length 1.84454   
     axis 0 0 0   XYZ
    dof rx ry rz
    limits (-20.0 45.0)
           (-30.0 30.0)
           (-30.0 30.0)
  end
  begin
     id 15 
     name upperneck
     direction 0.079456 0.981963 -0.171567   
     length 1.88141   
     axis 0 0 0   XYZ
    dof rx ry rz
    limits (-20.0 45.0)
           (-30.0 30.0)
           (-30.0 30.0)
  end
  begin
     id 16
     name head
     direction 0.0262167 0.9967 -0.0768276  
     length 1.89541  
     axis 0 0 0   XYZ
    dof rx ry rz
    limits (-20.0 45.0)
           (-30.0 30.0)
           (-30.0 30.0)
  end
  begin
     id 17 
     name lclavicle
     direction 0.946135 0.322134 -0.0325326  
     length 3.949  
     axis 0 0 0   XYZ
    dof ry rz
    limits (-20.0 10.0)
           (0.0 20.0)
  end
  begin
     id 18 
     name lhumerus
     direction 1 -4.48964e-011 1.94005e-028   
     length 5.10995   
     axis 180 -30 -90   XYZ
    dof rx ry rz
    limits (-60.0 90.0)
           (-90.0 90.0)
           (-90.0 90.0)
  end
  begin
     id 19
     name lradius
     direction 1 -4.48976e-011 2.87852e-027   
     length 3.21207   
     axis 180 -30 -90   XYZ
    dof rx
    limits (-10.0 170.0)
  end
  begin
     id 20
     name lwrist
     direction 1 -4.48963e-011 1.9975e-027   
     length 1.60604   
     axis 2.96054e-016 90 90   XYZ
    dof ry
    limits (-180.0 0.0)
 end
  begin
     id 21 
     name lhand
     direction 1 -4.48919e-011 4.00227e-027   
     length 0.63349   
     axis -2.5488e-015 90 90   XYZ
    dof rx rz
    limits (-90.0 90.0)
           (-45.0 45.0)
  end
  begin
     id 22 
     name lfingers
     direction 1 -4.49037e-011 7.9652e-027   
     length 0.510736   
     axis -5.0975e-015 90 90   XYZ
    dof rx
    limits (0.0 90.0)
  end
  begin
     id 23
     name lthumb
     direction 0.707107 -6.34922e-011 0.707107   
     length 0.733318   
     axis -90 45 -4.48553e-014   XYZ
    dof rx rz
    limits (-45.0 45.0)
           (-45.0 45.0)
  end
  begin
     id 24 
     name rclavicle
     direction -0.940085 0.328911 -0.0897654   
     length 3.93848  
     axis 0 0 0   XYZ 
    dof ry rz
    limits (-10.0 20.0)
           (-20.0 0.0)
  end
  begin
     id 25 
     name rhumerus
     direction -1 -4.48958e-011 3.02044e-027  
     length 5.25109   
     axis 180 30 90   XYZ
    dof rx ry rz
    limits (-90.0 60.0)
           (-90.0 90.0)
           (-90.0 90.0)
  end
  begin
     id 26 
     name rradius
     direction -1 -4.4897e-011 9.78352e-028   
     length 3.28364   
     axis 180 30 90   XYZ
    dof rx
    limits (-10.0 170.0)
  end
  begin
     id 27 
     name rwrist
     direction -1 -4.48943e-011 1.99918e-027   
     length 1.64182   
     axis 2.96054e-016 -90 -90   XYZ
    dof ry
    limits (-180.0 0.0)
  end
  begin
     id 28
     name rhand
     direction -1 -4.49024e-011 3.98478e-027   
     length 0.599745   
     axis -2.5488e-015 -90 -90   XYZ
    dof rx rz
    limits (-90.0 90.0)
           (-45.0 45.0)
  end
  begin
     id 29
     name rfingers
     direction -1 -4.48914e-011 8.00621e-027   
     length 0.48353   
     axis -5.0975e-015 -90 -90   XYZ
    dof rx
    limits (0.0 90.0)
  end
  begin
     id 30
     name rthumb
     direction -0.707107 -6.34992e-011 0.707107   
     length 0.694255   
     axis -90 -45 4.48553e-014   XYZ
    dof rx rz
    limits (-45.0 45.0)
           (-45.0 45.0)
  end
:hierarchy
  begin
    root lhipjoint rhipjoint lowerback
    lhipjoint lfemur
    lfemur ltibia
    ltibia lfoot
    lfoot ltoes
    rhipjoint rfemur
    rfemur rtibia
    rtibia rfoot
    rfoot rtoes
    lowerback upperback
    upperback thorax
    thorax lowerneck lclavicle rclavicle
    lowerneck upperneck
    upperneck head
    lclavicle lhumerus
    lhumerus lradius
    lradius lwrist
    lwrist lhand lthumb
    lhand lfingers
    rclavicle rhumerus
    rhumerus rradius
    rradius rwrist
    rwrist rhand rthumb
    rhand rfingers
  end

#!OML:ASF E:\CV Data\Top Level 1\Subject 1\Session 1\player.ASF
:FULLY-SPECIFIED
:DEGREES
380
root -0.344346 16.9889 -0.566954 6.97771 -10.2763 -2.94391
lowerback 16.959 4.47588 7.38847
upperback 2.48481 7.46761 3.71422
thorax -6.35135 3.48161 -1.78869
lowerneck -14.0751 -8.81812 -12.279
upperneck -0.703309 -10.2496 11.5758
head 3.28295 -4.68636 4.73033
rclavicle -1.35174e-014 0
rhumerus -27.4568 57.2333 -103.859
rradius 70.8967
rwrist -13.4292
rhand -29.7312 9.15195
rfingers 7.12502
rthumb -3.05785 -20.8059
lclavicle -1.35174e-014 0
lhumerus -39.1213 -20.4871 105.031
lradius 84.9133
lwrist 17.0869
lhand -20.7926 26.566
lfingers 7.12502
lthumb 5.57458 56.4727
rfemur -14.4546 -7.00235 22.2793
rtibia 45.161
rfoot -28.8572 -17.1668
rtoes -8.08224
lfemur -41.0584 -1.0246 -7.98141
ltibia 34.2257
lfoot 1.50967 -2.65243
ltoes -0.261567
381
root -0.343717 17.0015 -0.640919 6.93394 -10.3002 -2.78112
lowerback 16.8074 4.27322 7.20965
upperback 2.37243 7.16334 3.67379
thorax -6.42915 3.33399 -1.66662
lowerneck -14.3891 -8.68431 -12.1455
upperneck -0.310482 -10.08 11.5115
head 3.42042 -4.59279 4.6914
rclavicle 4.25399e-014 5.56597e-014
rhumerus -26.9034 56.9343 -103.142
rradius 70.8879
rwrist -12.8459
rhand -29.6731 9.62617
rfingers 7.12502
rthumb -3.00175 -20.3325
lclavicle 4.25399e-014 5.56597e-014
lhumerus -38.8328 -20.7666 105.038
lradius 84.7679
lwrist 16.5249
lhand -20.7914 26.2913
lfingers 7.12502
lthumb 5.57575 56.1979
rfemur -14.8535 -6.96182 22.1753
rtibia 45.426
rfoot -28.7178 -17.0722
rtoes -7.76468
lfemur -40.8891 -0.76845 -8.50784
ltibia 35.5902
lfoot 0.37039 -1.89151
ltoes -0.431402
382
root -0.34198 17.0136 -0.714667 6.91983 -10.3035 -2.6425
lowerback 16.6377 4.05995 7.04375
upperback 2.25343 6.84701 3.64287
thorax -6.50291 3.18068 -1.53767
lowerneck -14.6985 -8.54409 -12.0027
upperneck 0.0682681 -9.90364 11.4449
head 3.55216 -4.49617 4.6521
rclavicle -2.50469e-014 7.95139e-015
rhumerus -26.3929 56.6623 -102.463
rradius 70.9061
rwrist -12.1331
rhand -29.687 10.1248
rfingers 7.12502
rthumb -3.01522 -19.8337
lclavicle -2.50469e-014 7.95139e-015
lhumerus -38.5454 -21.0858 105.062
lradius 84.6416
lwrist 16.0621
lhand -20.8961 26.0559
lfingers 7.12502
lthumb 5.47468 55.9652
rfemur -15.2792 -6.92218 22.1013
rtibia 45.6847
rfoot -28.5672 -16.9967
rtoes -7.4428
lfemur -40.7674 -0.543293 -8.98104
ltibia 37.0154
lfoot -0.691096 -1.17754
ltoes -0.549809
383
root -0.338499 17.0259 -0.785775 6.91444 -10.3512 -2.53347
lowerback 16.4509 3.85684 6.89459
upperback 2.13924 6.54531 3.61817
thorax -6.55815 3.03517 -1.41246
lowerneck -14.985 -8.39521 -11.8544
upperneck 0.423351 -9.71896 11.3836
head 3.67292 -4.39597 4.61619
rclavicle 1.35174e-014 3.65764e-014
rhumerus -25.9432 56.4138 -101.842
rradius 70.9603
rwrist -11.4007
rhand -29.7818 10.6257
rfingers 7.12502
rthumb -3.10675 -19.3314
lclavicle 1.35174e-014 3.65764e-014
lhumerus -38.2668 -21.446 105.102
lradius 84.5474
lwrist 15.7518
lhand -21.0723 25.9394
lfingers 7.12502
lthumb 5.30452 55.853
rfemur -15.6942 -6.8479 22.0472
rtibia 45.9152
rfoot -28.3964 -16.9255
rtoes -7.13129
lfemur -40.6338 -0.312943 -9.39692
ltibia 38.4818
lfoot -1.69553 -0.529678
ltoes -0.674308
384
root -0.332834 17.0388 -0.853203 6.89712 -10.4533 -2.44783
lowerback 16.2555 3.66487 6.76244
upperback 2.03482 6.25993 3.59896
thorax -6.59418 2.8982 -1.29312
lowerneck -15.2362 -8.23706 -11.7105
upperneck 0.758454 -9.52521 11.3313
head 3.78251 -4.29206 4.58666
rclavicle -9.54166e-015 -1.27222e-014
rhumerus -25.5532 56.1907 -101.278
rradius 71.0577
rwrist -10.7564
rhand -29.9061 11.0871
rfingers 7.12502
rthumb -3.22675 -18.8682
lclavicle -9.54166e-015 -1.27222e-014
lhumerus -38.0034 -21.8465 105.165
lradius 84.4844
lwrist 15.612
lhand -21.3074 26.0049
lfingers 7.12502
lthumb 5.07751 55.924
rfemur -16.0701 -6.74163 22.0001
rtibia 46.1132
rfoot -28.2134 -16.8513
rtoes -6.82984
lfemur -40.4476 -0.0757882 -9.76367
ltibia 39.9613
lfoot -2.64025 0.0257545
ltoes -0.850372
